<?xml version="1.0" standalone="no"?>
<!DOCTYPE svg PUBLIC "-//W3C//DTD SVG 20010904//EN"
 "http://www.w3.org/TR/2001/REC-SVG-20010904/DTD/svg10.dtd">
<svg version="1.0" xmlns="http://www.w3.org/2000/svg"
 width="512.000000pt" height="512.000000pt" viewBox="0 0 512.000000 512.000000"
 preserveAspectRatio="xMidYMid meet">

<g transform="translate(0.000000,512.000000) scale(0.100000,-0.100000)"
fill="#000000" stroke="none">
<path d="M720 2755 c0 -579 2 -622 41 -712 26 -61 99 -135 164 -167 100 -49
161 -56 498 -56 l307 0 0 175 0 175 -262 0 c-289 0 -308 3 -352 63 -21 28 -21
40 -24 558 l-3 529 -184 0 -185 0 0 -565z"/>
<path d="M1860 2743 c0 -611 1 -628 48 -719 28 -56 94 -119 156 -149 96 -47
164 -55 499 -55 l307 0 0 175 0 174 -274 3 c-259 3 -276 4 -303 24 -64 47 -63
36 -63 607 l0 517 -185 0 -185 0 0 -577z"/>
<path d="M3110 3140 l0 -180 360 0 c198 0 360 -3 360 -7 -1 -5 -178 -181 -395
-393 l-394 -385 -1 -177 0 -178 82 0 82 0 67 66 66 66 79 -46 c143 -83 279
-118 459 -119 66 0 149 5 185 12 119 22 250 72 323 123 l27 19 0 200 0 199
-51 -40 c-187 -147 -493 -188 -716 -95 l-38 16 80 76 c44 43 214 210 378 372
l297 295 0 178 0 178 -625 0 -625 0 0 -180z"/>
</g>
</svg>
